<svg viewBox="0 0 24 24" fill="none" xmlns="http://www.w3.org/2000/svg"><g id="SVGRepo_bgCarrier" stroke-width="0"></g><g id="SVGRepo_tracerCarrier" stroke-linecap="round" stroke-linejoin="round"></g><g id="SVGRepo_iconCarrier"> <path d="M11.6465 1.3536L7.8536 5.14649C7.65834 5.34175 7.65834 5.65834 7.8536 5.8536L11.6465 9.64649C11.8418 9.84176 12.1584 9.84175 12.3536 9.64649L16.1465 5.8536C16.3418 5.65834 16.3418 5.34176 16.1465 5.14649L12.3536 1.3536C12.1584 1.15834 11.8418 1.15834 11.6465 1.3536Z" fill="#35796F"></path> <path d="M11.6465 14.3536L7.8536 18.1465C7.65834 18.3418 7.65834 18.6583 7.8536 18.8536L11.6465 22.6465C11.8418 22.8418 12.1584 22.8418 12.3536 22.6465L16.1465 18.8536C16.3418 18.6583 16.3418 18.3418 16.1465 18.1465L12.3536 14.3536C12.1584 14.1583 11.8418 14.1583 11.6465 14.3536Z" fill="#35796F"></path> <path d="M1.3536 11.6465L5.14654 7.8536C5.3418 7.65834 5.65838 7.65834 5.85364 7.8536L9.64649 11.6465C9.84175 11.8418 9.84175 12.1583 9.64649 12.3536L5.85364 16.1465C5.65838 16.3418 5.3418 16.3418 5.14654 16.1465L1.3536 12.3536C1.15834 12.1583 1.15834 11.8418 1.3536 11.6465Z" fill="#35796F"></path> <path d="M18.1465 7.8536L14.3536 11.6465C14.1583 11.8418 14.1583 12.1583 14.3536 12.3536L18.1465 16.1465C18.3418 16.3418 18.6584 16.3418 18.8536 16.1465L22.6465 12.3536C22.8418 12.1583 22.8418 11.8418 22.6465 11.6465L18.8536 7.8536C18.6584 7.65834 18.3418 7.65834 18.1465 7.8536Z" fill="#35796F"></path> </g></svg>