<svg version="1.1" id="_x32_" xmlns="http://www.w3.org/2000/svg" xmlns:xlink="http://www.w3.org/1999/xlink" viewBox="0 0 512 512" xml:space="preserve" fill="#000000"><g id="SVGRepo_bgCarrier" stroke-width="0"></g><g id="SVGRepo_tracerCarrier" stroke-linecap="round" stroke-linejoin="round"></g><g id="SVGRepo_iconCarrier"> <style type="text/css">  .st0{fill:#35796F;}  </style> <g> <polygon class="st0" points="509.344,159.094 509.344,159.078 428.906,76.625 375.906,159.094 "></polygon> <polygon class="st0" points="188.531,192.547 256,445.063 323.484,192.547 "></polygon> <polygon class="st0" points="198.953,159.094 312.453,159.094 312.453,159.078 254.797,79.625 198.953,159.078 "></polygon> <polygon class="st0" points="344.422,146.188 395.375,66.938 286.906,66.938 344.406,146.188 "></polygon> <polygon class="st0" points="222.844,66.938 116.625,66.938 167.375,145.844 "></polygon> <polygon class="st0" points="83.094,76.625 2.656,159.078 2.656,159.094 136.125,159.094 "></polygon> <polygon class="st0" points="0,192.547 220.313,441.094 220.328,441.125 153.906,192.547 "></polygon> <polygon class="st0" points="358.094,192.547 291.688,441.125 291.703,441.094 512,192.547 "></polygon> </g> </g></svg>